# xmcd
#
# Track frame offsets:
#       150
#       12625
#       29417
#       40947
#       55292
#       63110
#       76017
#       92200
#       103737
#       114800
#
# Disc length: 1701 seconds
#
# Revision: 3
# Processed by: cddbd v1.5.2PL0 Copyright (c) Steve Scherf et al.
# Submitted via: FreeDbEdit v0.1
#
DISCID=7606a30a
DTITLE=Various Artist - Out West
DYEAR=1900
DGENRE=Country
TTITLE0=Tex Ritter - The Wayward Wind
TTITLE1=Roy Rogers - The Blizzard
TTITLE2=Walter Brennan - High Noon (Do Not Forsake Me)
TTITLE3=Slim Whitman - Red River Valley
TTITLE4=Tex Ritter - Jingle, Jangle, Jingle
TTITLE5=Roy Rogers - Okie From Muskogee
TTITLE6=Walter Brennan - Gunfight at the O.K. Corral
TTITLE7=Slim Whitman - Cattle Call
TTITLE8=Tex Ritter - There's a New Moon Over My Shoulder
TTITLE9=Roy Rogers - Come Sundown
EXTD=
EXTT0=
EXTT1=
EXTT2=
EXTT3=
EXTT4=
EXTT5=
EXTT6=
EXTT7=
EXTT8=
EXTT9=
PLAYORDER=
